# xmcd
#
# Track frame offsets: 
#        150
#        19680
#        44698
#        59576
#        76630
#        96356
#        129765
#        150051
#        168882
#        189404
#        209566
#        223281
#        237568
#        252505
#        269476
#        287397
#
# Disc length: 4049 seconds
#
# Revision: 0
# Processed by: cddbd v1.5.2PL0 Copyright (c) Steve Scherf et al.
# Submitted via: ExactAudioCopyFreeDBPlugin 1.0
#
DISCID=e00fcf10
DTITLE=Various Artist - In Ya Mellow Tone 7.5
DYEAR=2012
DGENRE=
TTITLE0=Robert de Boron Feat. Magnetic North and Taiyo Na - All On The T
TTITLE0=able
TTITLE1=AMP - No Other Place -re:plus remix-
TTITLE2=Robert de Boron and Othello Feat. Vivian Chen - True Love
TTITLE3=Conscience Feat. Sashae and Too Phat - Sunshine
TTITLE4=Gemini - Going With The Flow
TTITLE5=Hidetake Takayama Feat. Amanda Silvera and Matt Brevner - Believ
TTITLE5=e
TTITLE6=Acro Jazz Laboratories Feat. Nieve, Tunji and Noah King - Back W
TTITLE6=ith Another One
TTITLE7=ArtOfficial Feat. Wrekonize and DJ Fuse - Can't Keep Running In 
TTITLE7=Place
TTITLE8=Hy-Definition Feat. Nieve and Marie - Proud Of Me
TTITLE9=iris - One More Chance
TTITLE10=Blee Feat. Substantial - Everything I Do
TTITLE11=Thomas Prime Feat. CL and Mrs. Bux - Old Skool
TTITLE12=Fresh Sly - Troubles
TTITLE13=Saturday Morning Cartoon - Postcard Lullaby
TTITLE14=Pigeon John - Money Back Guarantee
TTITLE15=Gowe - By The Sea
EXTD=
EXTT0=
EXTT1=
EXTT2=
EXTT3=
EXTT4=
EXTT5=
EXTT6=
EXTT7=
EXTT8=
EXTT9=
EXTT10=
EXTT11=
EXTT12=
EXTT13=
EXTT14=
EXTT15=
PLAYORDER=
